<?xml version="1.0" encoding="UTF-8"?>
<svg version="1.1" xmlns="http://www.w3.org/2000/svg" width="695" height="695">
<path d="M0 0 C1.52917053 -0.00101212 1.52917053 -0.00101212 3.0892334 -0.00204468 C58.46434978 0.05596983 112.0750054 12.66358787 161.26611328 38.28369141 C163.09755617 39.23573382 164.93681586 40.17113802 166.77734375 41.10546875 C189.35240866 52.70092533 210.0696717 67.54246287 229.125 84.25 C229.88039063 84.89453125 230.63578125 85.5390625 231.4140625 86.203125 C236.22298639 90.32505976 240.68821233 94.73350956 245.125 99.25 C247.79065673 101.92898502 250.47096677 104.5911308 253.17578125 107.23046875 C259.66124073 113.58556723 265.60914503 120.02266521 271.125 127.25 C272.16960047 128.55780959 273.21670067 129.86362454 274.265625 131.16796875 C298.02235489 160.89136576 316.37608194 194.42834899 329.125 230.25 C329.57286865 231.47323975 329.57286865 231.47323975 330.02978516 232.72119141 C360.42341731 315.98483655 354.68089673 413.03858504 317.58789062 493.16796875 C302.35147444 525.2681887 283.55568398 554.52756364 259.45703125 580.69921875 C257.49000972 582.85075151 255.57946871 585.03291973 253.6875 587.25 C246.78414899 595.17908476 239.16590919 602.48731298 231.125 609.25 C229.90876953 610.29994141 229.90876953 610.29994141 228.66796875 611.37109375 C189.34033252 644.86833915 143.04430416 669.77956462 93.125 683.25 C92.19171875 683.50378418 91.2584375 683.75756836 90.296875 684.01904297 C19.44861206 702.96111327 -58.79126909 698.58473211 -126.875 671.25 C-128.20362061 670.7250293 -128.20362061 670.7250293 -129.55908203 670.18945312 C-162.50390355 657.06285757 -192.44856606 638.61407814 -219.875 616.25 C-220.43703125 615.79238281 -220.9990625 615.33476563 -221.578125 614.86328125 C-229.09739278 608.7064496 -236.10499522 602.23454718 -242.875 595.25 C-245.53863801 592.5689241 -248.2212059 589.90916981 -250.92578125 587.26953125 C-257.40769256 580.91788977 -263.38948722 574.49728331 -268.875 567.25 C-269.85792726 565.99365765 -270.8424348 564.7385508 -271.828125 563.484375 C-320.21922491 501.56066467 -346.48221256 426.34595048 -346.1875 347.6875 C-346.18526428 346.19536987 -346.18526428 346.19536987 -346.1829834 344.6730957 C-346.13839701 328.0244038 -345.3454725 311.73667692 -342.875 295.25 C-342.73578125 294.2997998 -342.5965625 293.34959961 -342.453125 292.37060547 C-337.43514861 259.29493932 -327.349573 227.37715147 -312.875 197.25 C-312.55885742 196.57678711 -312.24271484 195.90357422 -311.91699219 195.20996094 C-292.21610737 153.29097159 -261.78690971 112.81014337 -225.875 83.25 C-225.05225586 82.56454102 -225.05225586 82.56454102 -224.21289062 81.86523438 C-204.48636691 65.45031361 -183.55010872 51.29211897 -160.875 39.25 C-160.22772949 38.90372559 -159.58045898 38.55745117 -158.91357422 38.20068359 C-120.00999762 17.54543234 -77.52073051 5.88937706 -33.875 1.25 C-32.50819092 1.0953125 -32.50819092 1.0953125 -31.11376953 0.9375 C-20.77700547 -0.09451781 -10.37760511 0.0061774 0 0 Z M57.125 259.25 C56.43277344 259.77851563 55.74054688 260.30703125 55.02734375 260.8515625 C40.68518945 272.42793356 31.58701657 289.98362528 26.125 307.25 C26.125 308.24 26.125 309.23 26.125 310.25 C23.125 309.25 23.125 309.25 21.1953125 305.83203125 C11.70238807 285.51897258 6.26490679 263.73967377 0.125 242.25 C-25.945 242.25 -52.015 242.25 -78.875 242.25 C-78.94847656 253.57505859 -78.94847656 253.57505859 -79.0234375 265.12890625 C-79.05885916 269.93686165 -79.09483936 274.74480009 -79.1328125 279.55273438 C-79.19291714 287.16948913 -79.25105101 294.78622037 -79.296875 302.40307617 C-79.33398533 308.54992174 -79.38041226 314.69663523 -79.43306351 320.84336662 C-79.45147159 323.1782491 -79.46662857 325.51315975 -79.47834396 327.8480854 C-79.71907904 374.20550391 -79.71907904 374.20550391 -95.6796875 391.16796875 C-105.29657275 400.22483458 -117.05903928 403.8497557 -130.14453125 403.49609375 C-140.25483686 402.58486449 -148.64041615 400.24418356 -156.875 394.25 C-157.49761719 393.83234375 -158.12023437 393.4146875 -158.76171875 392.984375 C-168.33661772 385.84085487 -173.42659982 373.5950622 -175.875 362.25 C-176.04253784 361.48001175 -176.21007568 360.7100235 -176.38269043 359.91670227 C-178.55332339 348.2193955 -178.12521724 336.42494629 -178.0703125 324.57421875 C-178.06657631 322.19383361 -178.0637322 319.81344693 -178.06173706 317.43305969 C-178.05414832 311.20740414 -178.0345413 304.98184384 -178.0123291 298.75622559 C-177.98814411 291.26534238 -177.97906701 283.77442711 -177.96742249 276.28351593 C-177.94811371 264.93894464 -177.90975787 253.59458181 -177.875 242.25 C-193.055 242.25 -208.235 242.25 -223.875 242.25 C-223.93327751 260.49706421 -223.93327751 260.49706421 -223.97265625 278.74414062 C-223.98456088 286.19835293 -223.99856613 293.6525156 -224.02587891 301.10668945 C-224.04778538 307.12379052 -224.05960577 313.14083825 -224.06475449 319.15797615 C-224.06841855 321.44099834 -224.07557239 323.72401797 -224.08646011 326.00701714 C-224.24845298 361.41842571 -218.50728931 392.46131634 -193.19921875 419.0625 C-175.78995496 436.39080442 -152.28251436 443.86349785 -128.125 444.5625 C-102.71530331 444.07440413 -79.18032739 435.24586782 -61.36376953 416.84423828 C-35.12853133 388.75041975 -33.36621417 353.5275666 -33.66900635 317.0324707 C-33.70013341 312.87520981 -33.71348916 308.71789162 -33.72851562 304.56054688 C-33.76033701 296.45687717 -33.8112871 288.35348157 -33.875 280.25 C-32.885 280.25 -31.895 280.25 -30.875 280.25 C-30.7925 281.15363281 -30.71 282.05726563 -30.625 282.98828125 C-29.80275416 288.68261918 -27.76863678 294.0270528 -25.875 299.4375 C-25.47055664 300.5937085 -25.06611328 301.74991699 -24.64941406 302.94116211 C-16.66484302 325.36640905 -6.53630689 349.57630356 8.23022461 368.39770508 C12.18301152 373.73135653 11.54182846 379.07283841 10.72108459 385.32873535 C10.13962647 388.96712466 9.50429216 392.59246777 8.8515625 396.21875 C8.60896506 397.59817957 8.36705461 398.97773011 8.1257782 400.35739136 C7.47694979 404.05669199 6.81887527 407.75429234 6.15909195 411.45165253 C5.47301946 415.3061233 4.79585488 419.16215761 4.11791992 423.01806641 C3.00698971 429.33085928 1.89135098 435.64280141 0.77197266 441.95410156 C-1.47159119 454.60537346 -3.69153087 467.26077656 -5.91119385 479.91625977 C-6.55217847 483.56622601 -7.19546268 487.21578015 -7.83935547 490.86523438 C-8.23014578 493.08463497 -8.62093369 495.30403598 -9.01171875 497.5234375 C-9.27496696 499.01096024 -9.27496696 499.01096024 -9.54353333 500.52853394 C-9.70536606 501.4490152 -9.86719879 502.36949646 -10.03393555 503.31787109 C-10.1731694 504.10680756 -10.31240326 504.89574402 -10.45585632 505.70858765 C-10.97909881 508.8811869 -11.4202656 512.0668592 -11.875 515.25 C3.305 515.25 18.485 515.25 34.125 515.25 C38.24842839 492.00088248 42.24036041 468.737884 46.0625 445.4375 C46.26535614 444.20571014 46.46821228 442.97392029 46.67721558 441.70480347 C47.25497823 438.19296394 47.82928834 434.68057911 48.40234375 431.16796875 C48.57701172 430.1072113 48.75167969 429.04645386 48.93164062 427.95355225 C49.08947021 426.98041077 49.2472998 426.00726929 49.40991211 425.00463867 C49.54868271 424.15487961 49.68745331 423.30512054 49.83042908 422.42961121 C50.19196539 420.12107574 50.19196539 420.12107574 50.125 417.25 C54.09356862 419.11045531 57.64642949 421.21206598 61.22241211 423.71411133 C85.48232754 440.66740502 113.4675447 447.52875333 142.87915039 442.72631836 C168.98312751 437.96708741 191.83106405 423.5685931 207.4296875 402.07421875 C224.02202775 377.87981026 229.92769373 348.70744724 225 319.75 C218.69130659 291.71136264 203.78917573 267.66596546 179.484375 251.81640625 C141.44815354 228.35472053 91.87778063 231.28799259 57.125 259.25 Z " fill="#9D9D9D" transform="translate(345.875,-0.24999999999999997)"/>
<path d="M0 0 C1.04285156 -0.020625 2.08570313 -0.04125 3.16015625 -0.0625 C17.60746652 -0.13464637 29.5903008 4.94015593 40.0546875 14.86328125 C54.9063294 30.13997014 58.9417363 48.01722754 58.65234375 68.76953125 C58.12055119 84.0010227 52.4607555 100.0213225 41.63671875 111.015625 C29.25281448 122.43164897 15.15337887 127.38571995 -1.625 127.25 C-11.69565306 126.67512072 -20.47137252 124.45128031 -29.625 120.25 C-30.54796875 119.82976562 -31.4709375 119.40953125 -32.421875 118.9765625 C-45.04259897 112.66620051 -56.82085359 101.95621961 -64.625 90.25 C-64.85573869 81.52554024 -62.94929236 72.87747825 -60.9375 64.4375 C-60.67130859 63.30820068 -60.40511719 62.17890137 -60.13085938 61.01538086 C-54.99393135 39.88900893 -46.6849727 18.53794802 -27.625 6.25 C-18.09752342 1.52154866 -10.51498923 0.05085847 0 0 Z " fill="#9D9D9D" transform="translate(468.625,276.75)"/>
</svg>
